<svg t="1720517668888" class="icon" viewBox="0 0 1024 1024" version="1.1" xmlns="http://www.w3.org/2000/svg" p-id="4593" width="200" height="200"><path d="M512 64c247.424 0 448 200.576 448 448S759.424 960 512 960 64 759.424 64 512 264.576 64 512 64z m0 64c-212.075 0-384 171.925-384 384s171.925 384 384 384 384-171.925 384-384-171.925-384-384-384z m-48.427 128a8.533 8.533 0 0 1 7.894 5.355l163.84 409.6a8.533 8.533 0 0 1-7.894 11.712H581.76a8.533 8.533 0 0 1-7.893-5.355L533.333 576H341.312l-40.49 101.312a8.533 8.533 0 0 1-7.937 5.355h-45.61a8.533 8.533 0 0 1-7.936-11.712l163.84-409.6a8.533 8.533 0 0 1 7.936-5.355z m170.667 0a8.533 8.533 0 0 1 7.104 3.84l0.81 1.515 163.84 409.6a8.533 8.533 0 0 1-6.207 11.52l-1.707 0.192h-45.653a8.533 8.533 0 0 1-7.104-3.84l-0.811-1.515L704 576h-52.864l-27.84-64H678.4L608 335.979 578.667 409.3l-33.344-76.65 28.522-71.296a8.533 8.533 0 0 1 7.936-5.355h52.438z m-196.907 79.979L366.912 512h140.821l-70.4-176.021z" fill="#1296db" p-id="4594"></path></svg>